<?xml version="1.0" encoding="iso-8859-1"?>
<!-- Generator: Adobe Illustrator 18.0.0, SVG Export Plug-In . SVG Version: 6.00 Build 0)  -->
<svg version="1.1" baseProfile="tiny" id="Layer_1" xmlns="http://www.w3.org/2000/svg" xmlns:xlink="http://www.w3.org/1999/xlink"
	 x="0px" y="0px" viewBox="0 0 200 60" xml:space="preserve">
<g>
	<g>
		<path fill="#3795D3" d="M12.21,26.061c-1.783,0-3.523,0-5.238,0c-3.38-5.215-2.746-14.227,3.358-19.575
			c6.522-5.714,15.099-5.664,21.57-0.365c5.475,4.484,8.956,13.894,2.123,22.679c0.478,0.135,0.895,0.264,1.318,0.369
			c0.817,0.203,1.333,0.671,1.405,1.545c0.058,0.704,0.159,1.407,0.16,2.111c0.012,7.88,0.009,15.761,0.005,23.641
			c0,0.504-0.054,1.008-0.084,1.533c-6.258,0-12.373,0-18.601,0c0.252-1.846,0.491-3.6,0.758-5.555c-0.616,0-1.073,0-1.528,0
			c-2.926-0.003-5.852,0.004-8.777-0.013c-1.859-0.011-2.528-0.688-2.549-2.578c-0.02-1.735-0.004-3.471-0.004-5.341
			c-1.754,0-3.382,0-5.124,0c1.129-3.012,2.199-5.867,3.27-8.721c0.579-1.542,1.148-3.088,1.741-4.625
			c0.724-1.876,1.137-2.182,3.136-2.193c3.822-0.02,7.644-0.007,11.467-0.007c2.544,0,5.088,0,7.473,0
			c1.02-1.437,1.97-2.713,2.854-4.032c2.506-3.741,2.7-7.703,0.7-11.656c-2.014-3.981-5.397-6.095-9.883-6.221
			c-5.908-0.166-10.543,3.415-11.786,9.13c-0.658,3.027-0.083,5.901,1.582,8.535c0.227,0.358,0.459,0.713,0.683,1.073
			C12.256,25.827,12.229,25.887,12.21,26.061z M23.073,45.915c0-1.438,0-2.741,0-3.858c0.516-0.693,0.968-1.183,1.286-1.748
			c0.801-1.422,0.482-2.908-0.771-3.899c-1.226-0.969-2.98-0.968-4.165,0.004c-1.239,1.015-1.549,2.503-0.745,3.909
			c0.369,0.645,0.858,1.221,1.407,1.987c0,1.095,0,2.342,0,3.605C21.096,45.915,21.984,45.915,23.073,45.915z"/>
		<path fill="#020202" d="M46.114,57.993c0-11.192,0-22.309,0-33.495c1.783,0,3.512,0,5.399,0c0,0.937,0,1.899,0,3.152
			c0.426-0.358,0.631-0.505,0.806-0.681c3.265-3.277,7.184-3.737,11.373-2.425c4.175,1.308,6.402,4.425,7.287,8.593
			c0.533,2.512,0.308,4.995-0.611,7.369c-1.819,4.697-6.793,8.763-13.671,6.342c-1.582-0.557-3.078-1.357-4.814-2.134
			c-0.098,4.417-0.003,8.807-0.058,13.279C49.949,57.993,48.085,57.993,46.114,57.993z M58.446,42.497
			c3.885,0.033,6.865-2.872,6.876-6.705c0.012-3.774-2.881-6.675-6.707-6.725c-3.874-0.052-6.874,2.869-6.88,6.698
			C51.731,39.537,54.649,42.465,58.446,42.497z"/>
		<path fill="#020202" d="M171.838,46.986c-2.492,0-4.984,0-7.619,0c-2.895-3.607-5.872-7.314-9.032-11.252c0,3.882,0,7.538,0,11.24
			c-2.087,0-3.995,0-6.061,0c0-11.78,0-23.503,0-35.29c1.881,0,3.887,0,5.99,0c0,7.234,0,14.424,0,21.949
			c3.067-3.195,5.922-6.169,8.775-9.142c2.431,0,4.816,0,7.506,0c-3.38,3.506-6.599,6.846-9.881,10.25
			c3.464,4.049,6.893,8.058,10.323,12.066C171.838,46.868,171.838,46.927,171.838,46.986z"/>
		<path fill="#020202" d="M129.218,47.012c-2.528,0-5.006,0-7.749,0c3.557-4.169,6.971-8.171,10.46-12.26
			c-3.203-3.333-6.384-6.642-9.705-10.097c2.607,0,4.991,0,7.498,0c2.789,2.909,5.648,5.891,8.751,9.127c0-7.552,0-14.771,0-22.076
			c2.017,0,3.875,0,5.81,0c0,11.714,0,23.442,0,35.245c-1.917,0-3.824,0-5.816,0c0-3.692,0-7.358,0-11.025
			c-0.081-0.043-0.161-0.087-0.242-0.13C135.216,39.542,132.209,43.287,129.218,47.012z"/>
		<path fill="#040404" d="M99.14,37.873c-6.11,0-11.845,0-17.662,0c0.209,2.067,1.073,3.522,2.845,4.366
			c2.698,1.286,5.294,1.102,7.745-0.628c0.614-0.433,1.169-0.949,1.838-1.498c1.264,0.918,2.551,1.854,3.904,2.836
			c-0.165,0.266-0.271,0.525-0.45,0.715c-3.557,3.758-7.968,4.75-12.818,3.544c-4.723-1.174-7.897-4.203-8.865-9.071
			c-1.292-6.497,2.495-11.959,8.661-13.755c2.167-0.631,4.375-0.741,6.571-0.186c4.402,1.111,6.877,4.103,7.795,8.405
			C99.052,34.231,98.994,35.948,99.14,37.873z M93.008,33.335c-0.429-3.534-2.251-5.109-5.707-5.084
			c-3.316,0.024-5.302,1.787-5.675,5.084C85.395,33.335,89.159,33.335,93.008,33.335z"/>
		<path fill="#030303" d="M171.838,46.986c-0.001-0.059-0.001-0.118,0-0.177c0.175-0.145,0.384-0.264,0.52-0.439
			c2.91-3.769,5.812-7.544,8.789-11.414c-2.57-3.38-5.145-6.765-7.839-10.307c2.498,0,4.745,0,7.078,0
			c1.445,2.079,2.916,4.193,4.491,6.459c1.698-2.239,3.306-4.36,4.927-6.497c2.136,0,4.252,0,6.645,0
			c-2.651,3.525-5.183,6.893-7.782,10.35c3.101,4.002,6.18,7.975,9.361,12.08c-2.47,0-4.766,0-7.18,0
			c-1.936-2.552-3.921-5.168-6.007-7.917c-2.077,2.72-4.064,5.322-6.005,7.864C176.449,46.986,174.144,46.986,171.838,46.986z"/>
		<path fill="#040404" d="M119.122,23.855c0,1.922,0,3.739,0,5.682c-0.774-0.048-1.51-0.103-2.247-0.139
			c-4.083-0.199-6.447,1.865-6.604,5.964c-0.122,3.204-0.043,6.416-0.053,9.624c-0.002,0.651,0,1.301,0,1.971
			c-1.967,0-3.79,0-5.687,0c0-7.45,0-14.842,0-22.328c1.803,0,3.619,0,5.55,0c0,0.816,0,1.638,0,2.641
			c1.832-1.095,3.163-2.722,5.206-3.023C116.531,24.065,117.79,23.988,119.122,23.855z"/>
	</g>
</g>
</svg>
