<?xml version="1.0" encoding="iso-8859-1"?>
<!-- Generator: Adobe Illustrator 18.0.0, SVG Export Plug-In . SVG Version: 6.00 Build 0)  -->
<svg version="1.1" id="Layer_1" xmlns="http://www.w3.org/2000/svg" xmlns:xlink="http://www.w3.org/1999/xlink" x="0px" y="0px"
	 viewBox="0 0 150 150" style="enable-background:new 0 0 150 150;" xml:space="preserve">
<g>
	<g>
		<path style="fill:#29BBD7;" d="M48.149,71.43c0-0.193,0-0.391,0-0.584c0.29-0.214,0.42-0.529,0.538-0.853
			c2.499-6.699,5.015-13.39,7.481-20.102c0.882-2.394,1.6-2.97,4.167-2.974c9.736-0.004,19.477-0.004,29.213-0.017
			c0.525,0,1.067,0.118,1.638-0.155c0.764-1.294,1.197-2.835,2.264-3.999c4.007-4.364,5.586-9.497,4.708-15.323
			C96.729,17.948,88.161,10.955,78,12.11C65.186,13.567,58.1,27.319,63.85,38.593c0.651,1.277,1.55,2.398,2.373,3.73
			c-3.054,0-5.906,0-8.695,0c-0.147-0.118-0.239-0.164-0.29-0.239c-0.109-0.16-0.206-0.332-0.294-0.504
			c-2.121-4.351-2.982-8.968-2.478-13.756c1.201-11.429,9.157-20.262,20.346-22.807c0.386-0.088,0.92,0.034,1.105-0.525
			c2.73,0,5.456,0,8.182,0c0.168,0.504,0.643,0.361,0.987,0.441c10.291,2.407,16.948,8.674,19.997,18.784
			c0.97,3.213,1.331,6.523,0.756,9.808c-0.722,4.12-2.029,8.06-4.641,11.475c-0.395,0.517-1.243,0.848-1.142,1.751
			c0.139,0.05,0.265,0.13,0.399,0.139c3.259,0.218,4.095,1.096,4.099,4.322c0.004,13.395,0.013,26.785,0.004,40.18
			c0,0.517,0.147,1.063-0.16,1.6c-9.719,0-19.435,0-29.263,0c0.466-2.986,0.92-5.88,1.365-8.741
			c-0.647-0.239-1.138-0.151-1.617-0.155c-5.015-0.008-10.034,0.004-15.05-0.017c-2.398-0.013-3.591-1.201-3.616-3.591
			c-0.025-2.629,0.004-5.259-0.004-7.892c0-0.378,0.118-0.785-0.239-1.151c-0.147-0.021-0.336-0.071-0.529-0.071
			C53.017,71.392,50.586,71.413,48.149,71.43z M82.856,67.381c3.096-2.73,3.583-5.784,1.399-8.207
			c-1.97-2.188-5.326-2.31-7.447-0.277c-2.453,2.348-2.062,5.36,1.205,8.636c0,2.025,0,4.15,0,6.288c1.668,0,3.234,0,4.847,0
			C82.856,71.602,82.856,69.511,82.856,67.381z"/>
	</g>
</g>
<g>
	<g>
		<path d="M100.228,113.151c0,5.133,0,10.265,0,15.717c2.188-2.331,4.162-4.44,6.137-6.544c1.651,0,3.255,0,5.234,0
			c-2.394,2.529-4.608,4.864-6.922,7.313c2.398,2.856,4.776,5.687,7.308,8.703c2.197-2.915,4.309-5.712,6.452-8.56
			c-1.836-2.453-3.625-4.843-5.536-7.392c1.73,0,3.259,0,4.948,0c0.983,1.453,2.029,2.999,3.175,4.692
			c1.226-1.663,2.361-3.196,3.474-4.704c1.516,0,2.965,0,4.641,0c-1.894,2.558-3.667,4.952-5.477,7.401
			c1.987,2.629,3.948,5.242,5.931,7.842c0.118,0.151,0.357,0.21,0.538,0.311c0,0.181,0,0.361,0,0.538c-1.567,0-3.133,0-4.877,0
			c-1.344-1.815-2.751-3.713-4.255-5.742c-1.466,1.966-2.873,3.852-4.267,5.729c-3.352,0-6.62,0-10.064,0
			c-2.02-2.575-4.112-5.234-6.443-8.199c0,2.915,0,5.469,0,8.127c-1.432,0-2.701,0-4.141,0c0-0.496,0-0.974,0-1.453
			c0-7.355,0.004-14.705-0.008-22.06c0-0.575-0.101-1.151-0.155-1.726C97.355,113.151,98.792,113.151,100.228,113.151z"/>
		<path d="M24.006,122.308c1.243,0,2.487,0,3.843,0c0,0.748,0,1.39,0,2.394c1.831-2.256,3.99-2.965,6.489-2.751
			c1.999,0.168,3.726,0.92,5.091,2.415c2.814,3.083,2.886,8.594,0.155,11.777c-2.852,3.327-6.914,3.516-11.542,0.416
			c0,3.318,0,6.519,0,9.719c-1.34,0-2.68,0-4.041,0C24.006,138.29,24.006,130.297,24.006,122.308z M37.477,130.347
			c-0.008-2.709-2.067-4.776-4.751-4.776c-2.688-0.004-4.738,2.046-4.759,4.763c-0.021,2.776,2.067,4.876,4.813,4.843
			C35.465,135.148,37.489,133.069,37.477,130.347z"/>
		<path d="M92.685,113.151c0,8.379,0,16.755,0,25.227c-1.394,0-2.705,0-4.12,0c0-2.638,0-5.208,0-8.211
			c-2.331,2.965-4.41,5.62-6.498,8.279c-1.71,0-3.411,0-5.406,0c2.52-3.007,4.906-5.859,7.371-8.804
			c-2.239-2.373-4.465-4.729-6.855-7.254c1.852,0,3.474,0,5.229,0c1.907,2.037,3.894,4.154,6.233,6.657c0-5.591,0-10.74,0-15.894
			C89.992,113.151,91.341,113.151,92.685,113.151z"/>
		<path d="M60.926,131.846c-4.07,0-8.085,0-12.197,0c0.143,1.684,0.97,2.76,2.327,3.306c2.453,0.987,4.553,0.239,6.351-1.71
			c0.974,0.731,1.89,1.415,2.806,2.1c-2.533,3.419-7.586,4.309-11.488,2.117c-3.65-2.054-5.175-6.519-3.574-10.492
			c1.575-3.927,6.225-6.128,10.475-4.969C59.343,123.215,61.552,127.121,60.926,131.846z M48.788,128.663c2.739,0,5.397,0,8.056,0
			c-0.109-2.293-1.449-3.579-3.713-3.675C50.674,124.882,49.094,126.189,48.788,128.663z"/>
		<path d="M64.841,122.354c1.348,0,2.583,0,3.927,0c0,0.71,0,1.357,0,2.025c1.029-0.735,1.894-1.617,2.944-2.037
			c1.008-0.399,2.205-0.315,3.411-0.454c0,1.562,0,2.755,0,4.066c-0.517-0.055-0.983-0.113-1.449-0.151
			c-2.944-0.244-4.809,1.432-4.834,4.398c-0.025,2.684-0.004,5.364-0.004,8.165c-1.348,0-2.617,0-3.999,0
			C64.841,133.094,64.841,127.793,64.841,122.354z"/>
	</g>
</g>
</svg>
