<?xml version="1.0" encoding="iso-8859-1"?>
<!-- Generator: Adobe Illustrator 18.0.0, SVG Export Plug-In . SVG Version: 6.00 Build 0)  -->
<svg version="1.1" baseProfile="tiny" id="Layer_1" xmlns="http://www.w3.org/2000/svg" xmlns:xlink="http://www.w3.org/1999/xlink"
	 x="0px" y="0px" viewBox="0 0 200 200" xml:space="preserve">
<g>
	<g>
		<path fill="#5E94D0" d="M118.939,59.325c0.361-0.532,0.941-1.058,1.109-1.694c0.531-2,1.881-3.471,3.142-4.951
			c2.735-3.214,4.487-6.807,5.344-10.958c0.525-2.545,0.491-5.081,0.249-7.555c-0.443-4.53-2.121-8.718-4.985-12.303
			c-3.342-4.182-7.602-7.078-12.79-8.53c-1.594-0.446-3.214-0.78-4.879-0.793c-2.46-0.019-4.941-0.164-7.349,0.428
			c-1.455,0.358-2.877,0.897-4.265,1.472c-4.801,1.986-8.547,5.145-11.328,9.617c-1.676,2.694-2.682,5.568-3.399,8.558
			c-0.414,1.729-0.559,3.607-0.378,5.372c0.23,2.247,0.445,4.542,1.247,6.699c0.861,2.319,1.955,4.521,3.378,6.553
			c0.431,0.615,0.832,1.25,1.226,1.846c-0.108,0.131-0.148,0.221-0.188,0.221c-3.786,0.006-7.574,0.006-11.641,0.006
			c-0.5-0.991-1.182-2.13-1.668-3.349c-0.837-2.102-1.515-4.25-1.906-6.505c-0.418-2.407-0.895-4.803-0.715-7.248
			c0.307-4.178,1.13-8.235,2.672-12.172c1.241-3.17,2.877-6.102,5.018-8.671c1.776-2.132,3.757-4.131,6.026-5.826
			c1.897-1.417,3.871-2.659,5.993-3.68c2.675-1.286,5.406-2.402,8.391-2.789c0.465-0.06,0.885-0.463,1.406-0.751
			c2.583,0,5.273,0.09,7.954-0.024c2.942-0.125,5.625,0.867,8.341,1.698c4.4,1.347,8.394,3.548,11.936,6.452
			c2.1,1.721,3.891,3.794,5.546,5.987c2.986,3.957,4.619,8.511,6.132,13.135c0.215,0.655,0.31,1.35,0.456,2.028
			c0.593,2.749,0.714,5.569,0.383,8.313c-0.397,3.298-1.322,6.522-2.508,9.657c-1.093,2.89-2.533,5.54-4.671,7.789
			c-0.526,0.553-0.52,0.559-0.9,1.736c1.334,0.345,2.736,0.539,3.989,1.081c1.027,0.445,1.639,1.339,1.879,2.625
			c0.327,1.746,0.303,3.47,0.304,5.206c0.011,17.098,0.011,34.196-0.002,51.294c0,0.679,0.295,1.459-0.533,2.061
			c-13.05,0-26.196,0-39.513,0c0.61-3.867,1.218-7.706,1.855-11.743c-0.609,0-1.244,0-1.877,0
			c-6.485-0.001-12.971,0.017-19.456-0.02c-1.143-0.006-2.303-0.149-3.422-0.384c-1.482-0.313-2.666-2.145-2.675-4.014
			c-0.019-3.734-0.006-7.468-0.008-11.202c0-0.577,0.146-1.205-0.759-1.665c-3.21,0-6.658,0-10.364,0
			c0.356-0.775,0.668-1.36,0.902-1.976c1.41-3.694,2.82-7.389,4.197-11.095c1.377-3.705,2.7-7.43,4.076-11.136
			c0.721-1.942,1.566-3.839,2.24-5.797c0.771-2.242,2.504-2.97,4.599-2.982c7.992-0.048,15.984-0.021,23.976-0.022
			C106.751,59.323,112.775,59.325,118.939,59.325z M107.972,87.109c0.335-0.35,0.653-0.677,0.966-1.009
			c1.195-1.271,2.254-2.777,2.553-4.401c0.869-4.709-2.742-8.094-6.934-8.146c-2.756-0.033-4.989,1.505-6.329,3.984
			c-0.462,0.856-0.842,1.957-0.723,2.878c0.172,1.335,0.54,2.721,1.459,3.838c0.777,0.944,1.528,1.908,2.461,3.078
			c0,2.527,0,5.313,0,8.074c2.245,0,4.373,0,6.546,0C107.972,92.583,107.972,89.847,107.972,87.109z"/>
		<path d="M128.11,186.155c0-12.292,0-24.462,0-36.728c2.006,0,4.015,0,6.157,0c0.246,1.782,0.074,3.66,0.105,5.529
			c0.03,1.833,0.006,3.668,0.006,5.502c0,1.899,0,3.799,0,5.699c0,1.828,0,3.656,0,5.858c3.128-3.178,6.027-6.122,9.098-9.242
			c2.382,0,5.047,0,7.763,0c-3.335,3.515-6.612,6.968-10.028,10.568c0.995,1.504,2.199,2.826,3.379,4.175
			c1.237,1.415,2.405,2.89,3.628,4.318c1.182,1.381,2.394,2.738,3.629,4.146c3.155-4.115,6.255-8.157,9.462-12.339
			c-2.609-3.649-5.497-7.071-8.118-10.868c2.552,0,4.901,0,7.375,0c1.497,2.148,3.04,4.363,4.679,6.717
			c1.755-2.28,3.47-4.506,5.157-6.698c2.235,0,4.45,0,6.944,0c-2.676,3.747-5.404,7.195-8.065,10.84
			c3.154,4.086,6.331,8.202,9.495,12.301c-0.035,0.093-0.047,0.157-0.081,0.204c-0.037,0.051-0.097,0.124-0.147,0.124
			c-2.29,0.006-4.579,0.005-7.085,0.005c-2.009-2.655-4.105-5.426-6.242-8.251c-2.117,2.8-4.208,5.566-6.247,8.263
			c-5.065,0-9.976,0-15.099,0c-3.026-3.754-6.138-7.615-9.479-11.761c0,4.109,0,7.828,0,11.641
			C132.299,186.155,130.3,186.155,128.11,186.155z"/>
		<path d="M27.145,183.844c0,4.625,0,9.126,0,13.721c-2.001,0.267-3.928,0.023-5.92,0.147c0-11.714,0-23.269,0-34.92
			c1.867,0,3.732,0,5.735,0c0,0.946,0,1.897,0,3.21c2.172-2.646,4.84-3.765,7.773-3.977c2.585-0.187,5.159,0.446,7.325,1.926
			c1.935,1.322,3.438,3.088,4.3,5.379c0.574,1.524,1.02,3.12,1.01,4.657c-0.033,5.381-2.168,10.515-8.625,12.458
			c-2.181,0.656-4.489,0.396-6.646-0.457C30.506,185.358,28.95,184.631,27.145,183.844z M41.188,174.559
			c-0.01-3.75-2.689-6.978-6.896-7.104c-3.857-0.116-7.164,2.714-7.218,6.958c-0.049,3.882,2.792,7.072,6.875,7.076
			C38.605,181.494,41.031,178.276,41.188,174.559z"/>
		<path d="M117.082,149.4c2.191,0,4.14,0,6.154,0c0,12.28,0,24.491,0,36.772c-2.021,0-4.018,0-6.144,0c0-3.884,0-7.724,0-11.948
			c-3.343,4.205-6.448,8.11-9.529,11.988c-2.766,0-5.432,0-8.24,0c3.653-4.299,7.213-8.488,10.847-12.765
			c-0.364-0.43-0.668-0.835-1.018-1.195c-1.326-1.358-2.691-2.68-3.999-4.055c-1.659-1.744-3.278-3.527-5.006-5.393
			c2.579,0,5.04,0,7.83,0c2.846,2.968,5.889,6.14,9.105,9.494C117.082,164.536,117.082,157.029,117.082,149.4z"/>
		<path d="M76.151,176.178c-0.531,0.801-1.163,0.599-1.723,0.6c-4.777,0.009-9.555,0.005-14.332,0.005c-0.639,0-1.277,0-1.914,0
			c0.11,2.171,1.44,4.068,3.262,4.692c2.653,0.909,5.173,0.691,7.479-1.024c0.614-0.456,1.236-0.901,1.987-1.448
			c1.295,0.942,2.574,1.872,3.884,2.826c-0.508,1.394-1.515,2.163-2.508,2.822c-2.11,1.401-4.511,2.255-7.022,2.315
			c-5.433,0.128-11.267-2.839-13.115-8.751c-1.823-5.833,0.703-11.515,5.622-14.327c2.331-1.333,4.836-2.051,7.526-1.897
			c2.753,0.158,5.373,0.973,7.297,2.967c2.029,2.102,3.359,4.695,3.544,7.713C76.211,173.841,76.151,175.02,76.151,176.178z
			 M58.198,171.988c3.964,0,7.786,0,11.598,0c0.394-3.452-2.817-5.509-5.683-5.401c-1.689,0.065-3.276,0.363-4.422,1.556
			C58.747,169.127,57.793,170.297,58.198,171.988z"/>
		<path d="M87.917,186.206c-2.113,0-4.058,0-6.098,0c0-7.782,0-15.53,0-23.477c1.835-0.033,3.701-0.012,5.707-0.009
			c0.055,0.915,0.108,1.798,0.168,2.79c0.97-0.679,1.87-1.286,2.746-1.928c1.119-0.82,2.311-1.326,3.744-1.306
			c0.872,0.011,1.748-0.212,2.751-0.348c0.216,2.085,0.119,4.076,0.059,6.25c-0.452-0.088-0.792-0.152-1.131-0.22
			c-2.114-0.418-4.117-0.117-5.855,1.17c-1.502,1.112-2.074,2.751-2.083,4.58c-0.018,3.202-0.006,6.405-0.007,9.607
			C87.917,184.224,87.917,185.135,87.917,186.206z"/>
	</g>
</g>
</svg>
