<?xml version="1.0" encoding="utf-8"?>
<!-- Generator: Adobe Illustrator 18.0.0, SVG Export Plug-In . SVG Version: 6.00 Build 0)  -->
<svg version="1.2" baseProfile="tiny" id="Perkkx_x5F_logo_1_"
	 xmlns="http://www.w3.org/2000/svg" xmlns:xlink="http://www.w3.org/1999/xlink" x="0px" y="0px" viewBox="0 0 180 180"
	 xml:space="preserve">
<g id="Shape_1">
	<path fill="#384C69" d="M81.8,22.1h15.1c0.6,0,1.1-0.5,1.1-1.1v-7.7c0-0.6-0.5-1.1-1.1-1.1H81.8c-0.6,0-1.1,0.5-1.1,1.1V21
		C80.7,21.6,81.2,22.1,81.8,22.1z M88.8,76.5h1.9c1,0,17.9-9.5,17.9-10.5L98,27.1c0-1-0.8-1.9-1.9-1.9h-13c-1,0-1.9,0.8-1.9,1.9
		L70.8,66C70.8,67,87.7,76.5,88.8,76.5z M113.5,66.6c1.1,3.2,3.7,2.7,3.1,4.3c-0.7,2.5-6.7,22.4-26.6,22.9
		c-18.6-0.1-24.2-19.4-25.3-21c0.2-1.7,5.6-6-1.9-5.6c-3.3,0.3-4.7,2.1-4.9,3.7c-1,5,2.5,3.7,2.5,3.7S66.2,99.1,90,98.7
		c25.1-0.7,28.4-27.2,28.4-27.2s2.1,0.5,3.7,0C122.9,70.3,118,60.3,113.5,66.6z"/>
</g>
<g>
	<g>
		<path fill="#3B4F6B" d="M126.6,112.5c0.1,0.7,0.3,1.4,0.4,2.1c0,8.2,0,16.4,0,25c3.6-4,7-7.7,10.3-11.4c2.8,0,5.6,0,8.7,0
			c-4,4.2-7.8,8.1-11.6,12.1c4.1,4.9,8.1,9.7,12.3,14.6c3.7-4.8,7.2-9.4,10.8-14.1c-3.2-4.2-6.3-8.2-9.6-12.5c2.8,0,5.3,0,8.1,0
			c1.8,2.6,3.7,5.3,5.8,8.2c2-2.8,4-5.5,6-8.2c2.5,0,5,0,7.8,0c-3.3,4.3-6.4,8.4-9.7,12.7c3.7,4.6,7.4,9.3,11.1,13.9
			c0,0.1,0,0.2,0,0.4c-2.7,0-5.5,0-8.2,0c-2.3-3.2-4.6-6.4-7-9.8c-2.4,3.3-4.7,6.5-7,9.7c-5.6,0-11.2,0-16.8,0
			c-3.5-4.5-7-9-10.7-13.9c0,4.9,0,9.3,0,13.8c-2.3,0-4.5,0-6.7,0c0-0.5-0.1-1.1-0.1-1.6c0-13,0-26,0-39c0-0.7,0.4-1.3,0.5-2
			C122.7,112.5,124.6,112.5,126.6,112.5z"/>
		<path fill="#3A4D6A" d="M3.8,128.2c2.1,0,4.2,0,6.5,0c0,1.2,0,2.3,0,3.9c2.4-3,5.2-4.4,8.5-4.6c7.1-0.4,12.6,3.9,13.9,11.1
			c1.4,7.6-2.3,14.7-8.9,16.7c-4.7,1.4-9.1,0.8-12.6-3.1c-0.1-0.2-0.3-0.4-0.8-1.1c0.1,0.7,0.1,0.9,0.1,1.1c0,4.8,0,9.7,0.1,14.5
			c0,0.7,0.1,1.3,0.2,2c-2.3,0-4.6,0-6.9,0C3.8,155.2,3.8,141.7,3.8,128.2z M26,141.6c0-5-3.1-8.6-7.6-8.7c-4.4-0.1-8.1,3.8-8.1,8.5
			c-0.1,5,3.4,8.8,8,8.7C22.8,150.2,26,146.6,26,141.6z"/>
		<path fill="#3C4F6C" d="M116.7,112.5c0.2,0.5,0.5,1,0.5,1.4c0,13.5,0,27.1,0,40.6c0,0.1-0.1,0.2-0.1,0.5c-2.1,0-4.3,0-6.5,0
			c0-4.4,0-8.9,0-13.4c-0.1-0.1-0.2-0.1-0.3-0.2c-3.5,4.5-7,9-10.5,13.6c-2.9,0-5.8,0-9,0c4.2-5,8.2-9.8,12.3-14.7
			c-3.8-4-7.6-7.9-11.5-12c2.9,0,5.7,0,8.7,0c3.2,3.5,6.6,7.2,10.2,11.2c0-0.8,0.1-1.3,0.1-1.8c0-7.7,0-15.4,0-23.1
			c0-0.7,0.2-1.4,0.4-2.1C112.9,112.5,114.8,112.5,116.7,112.5z"/>
		<path fill="#3A4E6A" d="M64.9,143.9c-6.8,0-13.5,0-20.2,0c-0.1,2.4,1.4,4.6,4,5.7c3.5,1.6,7.2,0.7,10.7-2.6
			c1.4,1.1,2.9,2.3,4.4,3.4c-3.6,4.8-8.5,5.9-13.9,5.3c-5.5-0.7-9.8-3.5-11.5-9c-1.8-5.7-1-11.2,3.5-15.5c4.3-4.1,9.6-4.9,15.1-3
			c5.5,1.9,7.5,6.5,8,11.9c0.1,0.9,0,1.8,0,2.7C65,143.2,64.9,143.5,64.9,143.9z M58,139c0.3-3.7-2.1-6.3-5.8-6.4
			c-4.2-0.1-7.6,2.7-7.5,6.4C49.1,139,53.6,139,58,139z"/>
		<path fill="#3B4F6B" d="M87.5,133.7c-0.5,0-0.7,0-1-0.1c-5.1-0.3-8.1,2.4-8.2,7.5c-0.1,3.9,0,7.9,0,11.8c0,0.7,0,1.3,0,2.1
			c-2.3,0-4.4,0-6.7,0c0-8.8,0-17.7,0-26.7c2.1,0,4.1,0,6.3,0c0,1.3,0,2.5,0,4.2c2.5-3.6,5.3-5.7,9.5-5
			C87.5,129.5,87.5,131.5,87.5,133.7z"/>
		<path fill="#828EA1" d="M10.5,152.2c0-0.2,0-0.4-0.1-1.1c0.5,0.6,0.6,0.9,0.8,1.1C10.9,152.2,10.7,152.2,10.5,152.2z"/>
	</g>
</g>
</svg>
