<?xml version="1.0" encoding="iso-8859-1"?>
<!-- Generator: Adobe Illustrator 18.0.0, SVG Export Plug-In . SVG Version: 6.00 Build 0)  -->
<svg version="1.1" id="Layer_1" xmlns="http://www.w3.org/2000/svg" xmlns:xlink="http://www.w3.org/1999/xlink" x="0px" y="0px"
	 viewBox="0 0 129 40" style="enable-background:new 0 0 129 40;" xml:space="preserve">
<g>
	<g>
		<path style="fill:#29BBD7;" d="M0.969,29.942c0-0.084,0-0.169,0-0.253c0.126-0.092,0.182-0.23,0.233-0.369
			c1.082-2.903,2.172-5.803,3.241-8.71c0.381-1.037,0.693-1.287,1.804-1.288c4.219-0.002,8.438-0.003,12.657-0.008
			c0.227,0,0.463,0.05,0.711-0.067c0.331-0.56,0.518-1.229,0.982-1.733c1.736-1.89,2.421-4.115,2.04-6.64
			c-0.619-4.106-4.332-7.136-8.735-6.635C8.35,4.872,5.279,10.831,7.771,15.714c0.282,0.554,0.671,1.039,1.029,1.617
			c-1.323,0-2.56,0-3.767,0C4.97,17.28,4.929,17.26,4.907,17.227c-0.047-0.069-0.09-0.143-0.127-0.219
			c-0.919-1.886-1.292-3.886-1.074-5.961c0.521-4.952,3.968-8.779,8.816-9.881C12.689,1.128,12.921,1.18,13,0.939
			c1.182,0,2.364,0,3.546,0c0.072,0.219,0.279,0.156,0.428,0.191c4.458,1.043,7.344,3.758,8.665,8.139
			c0.42,1.393,0.577,2.826,0.327,4.25c-0.313,1.786-0.879,3.493-2.011,4.973c-0.171,0.223-0.538,0.368-0.494,0.759
			c0.06,0.021,0.115,0.056,0.173,0.06c1.413,0.095,1.775,0.476,1.776,1.872c0.002,5.803,0.005,11.607,0.002,17.41
			c0,0.224,0.064,0.46-0.069,0.694c-4.21,0-8.421,0-12.68,0c0.202-1.294,0.398-2.548,0.591-3.788
			c-0.28-0.105-0.493-0.066-0.701-0.067c-2.174-0.004-4.347,0.002-6.521-0.008c-1.039-0.005-1.556-0.521-1.567-1.556
			C4.455,32.73,4.468,31.59,4.465,30.45c0-0.163,0.051-0.341-0.103-0.498c-0.064-0.009-0.146-0.031-0.228-0.031
			C3.078,29.927,2.024,29.935,0.969,29.942z M16.006,28.188c1.341-1.182,1.552-2.506,0.606-3.556
			c-0.853-0.947-2.307-1.002-3.227-0.121c-1.063,1.018-0.894,2.323,0.522,3.742c0,0.877,0,1.798,0,2.726c0.724,0,1.401,0,2.099,0
			C16.006,30.017,16.006,29.111,16.006,28.188z"/>
	</g>
</g>
<g>
	<g>
		<path d="M102.57,6.228c0,4.338,0,8.677,0,13.285c1.848-1.971,3.517-3.751,5.186-5.531c1.396,0,2.753,0,4.423,0
			c-2.024,2.138-3.894,4.112-5.851,6.18c2.026,2.414,4.037,4.808,6.176,7.357c1.856-2.463,3.641-4.829,5.454-7.236
			c-1.553-2.073-3.065-4.092-4.68-6.247c1.461,0,2.756,0,4.182,0c0.831,1.228,1.715,2.534,2.684,3.966
			c1.038-1.406,1.995-2.702,2.935-3.976c1.281,0,2.506,0,3.921,0c-1.601,2.163-3.099,4.187-4.629,6.255
			c1.678,2.224,3.338,4.431,5.011,6.628c0.098,0.129,0.301,0.177,0.455,0.263c0,0.152,0,0.304,0,0.455c-1.325,0-2.65,0-4.121,0
			c-1.137-1.535-2.325-3.138-3.595-4.852c-1.238,1.662-2.427,3.256-3.607,4.841c-2.832,0-5.593,0-8.506,0
			c-1.709-2.175-3.475-4.423-5.444-6.928c0,2.462,0,4.623,0,6.87c-1.212,0-2.283,0-3.502,0c0-0.42,0-0.823,0-1.227
			c0-6.215,0.003-12.429-0.006-18.644c-0.001-0.486-0.085-0.972-0.131-1.458C100.141,6.228,101.356,6.228,102.57,6.228z"/>
		<path d="M38.147,13.967c1.05,0,2.101,0,3.25,0c0,0.632,0,1.174,0,2.025c1.549-1.908,3.372-2.505,5.483-2.327
			c1.689,0.142,3.149,0.777,4.304,2.043c2.38,2.607,2.44,7.264,0.132,9.954c-2.411,2.811-5.842,2.972-9.754,0.35
			c0,2.806,0,5.51,0,8.215c-1.133,0-2.266,0-3.415,0C38.147,27.474,38.147,20.721,38.147,13.967z M49.534,20.762
			c-0.008-2.288-1.746-4.035-4.015-4.038c-2.273-0.003-4.003,1.73-4.021,4.027c-0.019,2.346,1.746,4.122,4.067,4.094
			C47.834,24.818,49.543,23.061,49.534,20.762z"/>
		<path d="M96.196,6.228c0,7.081,0,14.162,0,21.323c-1.178,0-2.286,0-3.483,0c0-2.229,0-4.403,0-6.941
			c-1.969,2.508-3.727,4.75-5.491,6.997c-1.446,0-2.884,0-4.568,0c2.129-2.542,4.147-4.951,6.232-7.441
			c-1.893-2.004-3.775-3.997-5.792-6.132c1.565,0,2.937,0,4.418,0c1.613,1.722,3.291,3.512,5.27,5.625c0-4.724,0-9.078,0-13.432
			C93.919,6.228,95.057,6.228,96.196,6.228z"/>
		<path d="M69.352,22.028c-3.44,0-6.835,0-10.308,0c0.119,1.423,0.821,2.332,1.967,2.794c2.072,0.835,3.849,0.201,5.369-1.446
			c0.824,0.617,1.598,1.197,2.372,1.776c-2.139,2.888-6.411,3.644-9.708,1.789c-3.086-1.736-4.372-5.509-3.022-8.868
			c1.333-3.318,5.261-5.18,8.855-4.198C68.013,14.734,69.882,18.034,69.352,22.028z M59.092,19.337c2.314,0,4.56,0,6.809,0
			c-0.093-1.937-1.226-3.024-3.137-3.105C60.687,16.145,59.351,17.247,59.092,19.337z"/>
		<path d="M72.662,14.006c1.138,0,2.184,0,3.32,0c0,0.599,0,1.146,0,1.712c0.87-0.623,1.602-1.368,2.489-1.72
			c0.851-0.337,1.864-0.265,2.882-0.382c0,1.32,0,2.328,0,3.438c-0.438-0.046-0.831-0.095-1.225-0.128
			c-2.488-0.207-4.063,1.212-4.085,3.717c-0.02,2.267-0.004,4.535-0.004,6.902c-1.139,0-2.21,0-3.378,0
			C72.662,23.083,72.662,18.604,72.662,14.006z"/>
	</g>
</g>
</svg>
